Coordinates
version=1
nRows=13
nColumns=22
inDegrees=yes

Units are S.I. units (second, meters, Newtons, ...)
If the header above contains a line with 'inDegrees', this indicates whether rotational values are in degrees (yes) or radians (no).

endheader
time	pelvis_tilt	pelvis_list	pelvis_rotation	pelvis_tx	pelvis_ty	pelvis_tz	hip_flexion_r	hip_adduction_r	hip_rotation_r	knee_angle_r	ankle_angle_r	subtalar_angle_r	hip_flexion_l	hip_adduction_l	hip_rotation_l	knee_angle_l	ankle_angle_l	subtalar_angle_l	lumbar_extension	lumbar_bending	lumbar_rotation
      0.01000000	    -13.41694392	      4.63346568	    -32.23771598	     -1.00987908	      0.97616161	     -0.20224740	     19.46692412	      5.70931782	     -5.86725673	    -15.21303640	     15.67299055	    -10.34279468	     21.14872747	     -4.66810430	     -7.37841504	    -19.20584392	     19.43326540	     -1.24963754	      8.19076903	      4.16984631	      4.17048756
      0.02000000	    -13.42222339	      4.62934821	    -32.26317169	     -1.01008022	      0.97615741	     -0.20223569	     19.47869484	      5.72683104	     -5.86673228	    -15.21075740	     15.64677998	    -10.33133227	     21.17257337	     -4.69323323	     -7.41190836	    -19.23510975	     19.40593310	     -1.25625034	      8.17969664	      4.17538343	      4.16718981
      0.03000000	    -13.42167534	      4.63391138	    -32.28599505	     -1.01027929	      0.97615578	     -0.20221552	     19.48546246	      5.73373836	     -5.86954938	    -15.20048830	     15.64659562	    -10.33062058	     21.18015195	     -4.70000990	     -7.40956259	    -19.23429947	     19.40645697	     -1.25664479	      8.17183808	      4.16565072	      4.16151974
      0.04000000	    -13.46222211	      4.64925328	    -32.34662090	     -1.01055890	      0.97609365	     -0.20212502	     19.52856667	      5.77547546	     -5.78298928	    -15.17429263	     15.60859015	    -10.31928430	     21.24153789	     -4.74488445	     -7.47844503	    -19.26414926	     19.41312346	     -1.26922904	      8.21204489	      4.17341890	      4.19371846
      0.05000000	    -13.46160853	      4.65491950	    -32.37145467	     -1.01078597	      0.97609424	     -0.20210814	     19.53714901	      5.78135691	     -5.78757770	    -15.16268694	     15.60875691	    -10.31891829	     21.25091401	     -4.75156118	     -7.47567563	    -19.26367490	     19.41274403	     -1.26937388	      8.20080306	      4.16081542	      4.18666176
      0.06000000	    -13.47700010	      4.67597688	    -32.40915023	     -1.01105307	      0.97606351	     -0.20206934	     19.56078363	      5.79286053	     -5.73537033	    -15.13377572	     15.58057816	    -10.31326641	     21.30188377	     -4.76770347	     -7.52695110	    -19.30231933	     19.39874987	     -1.27450152	      8.21476393	      4.14119971	      4.18922584
      0.07000000	    -13.51231831	      4.69355082	    -32.46488581	     -1.01130616	      0.97601596	     -0.20199665	     19.61172600	      5.82153063	     -5.69614357	    -15.13024252	     15.56038884	    -10.30915877	     21.33796606	     -4.79878560	     -7.56646915	    -19.28895425	     19.39552988	     -1.27515177	      8.25266828	      4.14281193	      4.22465687
      0.08000000	    -13.51942316	      4.71267015	    -32.48734427	     -1.01156444	      0.97599238	     -0.20199851	     19.63478299	      5.82247366	     -5.67164989	    -15.11459495	     15.54729589	    -10.30466822	     21.37975930	     -4.80325147	     -7.59070400	    -19.31927511	     19.39177738	     -1.27597123	      8.25103063	      4.11627464	      4.22603130
      0.09000000	    -13.52159030	      4.71619060	    -32.50713191	     -1.01177696	      0.97599315	     -0.20199459	     19.64558146	      5.83073094	     -5.67568107	    -15.10538528	     15.54728485	    -10.30417965	     21.38800811	     -4.81190459	     -7.59017850	    -19.31301075	     19.39106396	     -1.27578665	      8.24040051	      4.10281784	      4.22198323
      0.10000000	    -13.55931968	      4.74367072	    -32.56668918	     -1.01204969	      0.97593304	     -0.20194596	     19.71398126	      5.85413138	     -5.61541347	    -15.11614884	     15.50287447	    -10.29211557	     21.43892514	     -4.84174597	     -7.67439030	    -19.31111794	     19.36258868	     -1.27437083	      8.27866428	      4.09631359	      4.27200928
      0.11000000	    -13.56078055	      4.74636668	    -32.57964295	     -1.01225721	      0.97592984	     -0.20195500	     19.72451568	      5.86144012	     -5.61783027	    -15.10771041	     15.50415579	    -10.29165114	     21.44816167	     -4.84870398	     -7.67261249	    -19.30644569	     19.36391285	     -1.27416847	      8.26619269	      4.08013925	      4.27012188
      0.12000000	    -13.59465780	      4.79372973	    -32.63021056	     -1.01254104	      0.97583979	     -0.20193479	     19.81300063	      5.86250964	     -5.55053509	    -15.14095617	     15.49769360	    -10.27807866	     21.50988349	     -4.85334010	     -7.73981671	    -19.30752026	     19.36242087	     -1.26841941	      8.31100339	      4.04476687	      4.33393966
      0.13000000	    -13.59625343	      4.79398124	    -32.63766345	     -1.01274523	      0.97583759	     -0.20196026	     19.82454129	      5.87032325	     -5.55285740	    -15.13572403	     15.49763981	    -10.27757369	     21.51771871	     -4.86018778	     -7.73862758	    -19.29996583	     19.36167362	     -1.26819248	      8.29619756	      4.03012929	      4.33222466
